<svg xmlns="http://www.w3.org/2000/svg" viewBox="0 0 280 480" fill="none">

  <!-- Geometric rectangle backdrop -->
  <rect x="95" y="8" width="90" height="130" stroke="#111" stroke-width="1.2"/>
  <rect x="88" y="14" width="104" height="118" stroke="#111" stroke-width="0.5"/>

  <!-- Rose petals - outer layer -->
  <path d="M140 35 C128 28 116 32 112 44 C108 56 114 68 122 74 C116 66 116 52 124 46 C132 38 140 35 140 35Z" fill="#111"/>
  <path d="M140 35 C152 28 164 32 168 44 C172 56 166 68 158 74 C164 66 164 52 156 46 C148 38 140 35 140 35Z" fill="#111"/>
  <path d="M140 35 C148 44 158 50 162 62 C166 74 160 86 150 88 C156 80 158 68 154 58 C148 48 140 35 140 35Z" fill="#111" opacity="0.85"/>
  <path d="M140 35 C132 44 122 50 118 62 C114 74 120 86 130 88 C124 80 122 68 126 58 C132 48 140 35 140 35Z" fill="#111" opacity="0.85"/>
  <path d="M140 35 C144 48 148 62 144 74 C140 86 136 88 132 82 C136 76 140 60 136 48 C134 42 140 35 140 35Z" fill="#111" opacity="0.7"/>
  <path d="M140 35 C136 48 132 62 136 74 C140 86 144 88 148 82 C144 76 140 60 144 48 C146 42 140 35 140 35Z" fill="#111" opacity="0.7"/>

  <!-- Rose center -->
  <ellipse cx="140" cy="72" rx="14" ry="16" fill="#111"/>
  <ellipse cx="140" cy="72" rx="8" ry="10" fill="#333"/>
  <ellipse cx="140" cy="72" rx="3" ry="4" fill="#111"/>

  <!-- Falling petals -->
  <path d="M172 55 C176 50 180 54 177 60 C174 66 169 64 170 57 Z" fill="#111" opacity="0.6"/>
  <path d="M104 60 C100 54 104 49 108 53 C112 57 110 64 104 60 Z" fill="#111" opacity="0.5"/>
  <path d="M183 80 C186 76 189 80 186 86 C183 91 179 88 181 83 Z" fill="#111" opacity="0.4"/>

  <!-- Stem -->
  <path d="M140 88 C142 110 146 135 148 158 C150 180 148 205 144 228 C141 248 138 268 140 295" stroke="#111" stroke-width="2.5" fill="none" stroke-linecap="round"/>

  <!-- Thorn 1 -->
  <path d="M146 128 L158 122 L147 132 Z" fill="#111"/>
  <!-- Thorn 2 -->
  <path d="M148 178 L135 172 L147 180 Z" fill="#111"/>

  <!-- Leaf left -->
  <path d="M148 155 C168 142 182 148 180 165 C178 180 162 182 148 170 C142 164 144 158 148 155Z" fill="#111" opacity="0.9"/>
  <path d="M148 155 L172 168" stroke="#333" stroke-width="0.8"/>
  <path d="M155 158 L168 174" stroke="#333" stroke-width="0.5"/>

  <!-- Eye hidden in leaf -->
  <path d="M158 155 C164 150 172 151 175 157 C172 163 164 164 158 159 C156 157 156 156 158 155Z" fill="#111"/>
  <ellipse cx="167" cy="157" rx="4" ry="3" fill="#eee"/>
  <circle cx="167" cy="157" r="2.5" fill="#111"/>
  <circle cx="168.5" cy="156" r="0.8" fill="#eee"/>

  <!-- Leaf right -->
  <path d="M144 200 C124 188 112 195 115 212 C118 228 136 230 148 218 C153 211 150 204 144 200Z" fill="#111" opacity="0.85"/>
  <path d="M144 200 L120 215" stroke="#333" stroke-width="0.8"/>

  <!-- Geometric floating square -->
  <rect x="108" y="205" width="64" height="64" stroke="#111" stroke-width="1"/>
  <rect x="116" y="213" width="48" height="48" stroke="#111" stroke-width="0.5"/>

  <!-- Hand gripping stem -->
  <!-- Palm -->
  <path d="M122 295 C118 285 114 275 116 265 C118 255 126 250 132 252 C136 248 142 247 146 250 C150 246 156 247 158 252 C162 250 168 254 167 264 C166 272 162 280 160 295 Z" fill="#111"/>
  <!-- Finger lines on top -->
  <path d="M132 295 C130 285 130 275 132 268" stroke="#333" stroke-width="0.8"/>
  <path d="M140 295 C138 283 138 272 140 265" stroke="#333" stroke-width="0.8"/>
  <path d="M148 295 C150 285 150 275 148 268" stroke="#333" stroke-width="0.8"/>
  <!-- Thumb -->
  <path d="M122 270 C115 265 108 265 106 272 C104 279 108 286 115 285 C118 285 121 280 122 275 Z" fill="#111"/>
  <!-- Knuckle detail -->
  <path d="M127 258 C130 255 135 255 138 258" stroke="#333" stroke-width="0.7"/>
  <path d="M135 255 C138 252 143 252 146 255" stroke="#333" stroke-width="0.7"/>
  <path d="M143 257 C146 254 151 254 154 258" stroke="#333" stroke-width="0.7"/>

  <!-- Wrist line -->
  <path d="M122 295 Q130 305 140 308 Q150 305 158 295" stroke="#333" stroke-width="1" fill="none"/>

  <!-- Dotwork scattered -->
  <circle cx="88" cy="40" r="1.2" fill="#111"/>
  <circle cx="84" cy="52" r="0.8" fill="#111"/>
  <circle cx="90" cy="64" r="1" fill="#111"/>
  <circle cx="82" cy="76" r="0.7" fill="#111"/>
  <circle cx="192" cy="36" r="1.2" fill="#111"/>
  <circle cx="196" cy="50" r="0.8" fill="#111"/>
  <circle cx="190" cy="66" r="1" fill="#111"/>
  <circle cx="198" cy="80" r="0.7" fill="#111"/>
  <circle cx="186" cy="180" r="1" fill="#111"/>
  <circle cx="190" cy="192" r="0.7" fill="#111"/>
  <circle cx="85" cy="188" r="1" fill="#111"/>
  <circle cx="82" cy="200" r="0.7" fill="#111"/>
  <circle cx="170" cy="240" r="1" fill="#111"/>
  <circle cx="104" cy="245" r="1" fill="#111"/>
  <circle cx="175" cy="255" r="0.7" fill="#111"/>
  <circle cx="100" cy="258" r="0.7" fill="#111"/>

</svg>
